<?xml version="1.0" encoding="UTF-8"?>
<!DOCTYPE svg PUBLIC "-//W3C//DTD SVG 1.1//EN" "http://www.w3.org/Graphics/SVG/1.1/DTD/svg11.dtd">
<!-- Creator: CorelDRAW 2020 (64-Bit) -->
<svg xmlns="http://www.w3.org/2000/svg" xml:space="preserve" width="125.222mm" height="122.784mm" version="1.1" style="shape-rendering:geometricPrecision; text-rendering:geometricPrecision; image-rendering:optimizeQuality; fill-rule:evenodd; clip-rule:evenodd"
viewBox="0 0 12522.2 12278.36"
 xmlns:xlink="http://www.w3.org/1999/xlink"
 xmlns:xodm="http://www.corel.com/coreldraw/odm/2003">
 <defs>
  <style type="text/css">
   <![CDATA[
    .fil4 {fill:#FEFEFE;fill-rule:nonzero}
    .fil0 {fill:#FDCE61;fill-rule:nonzero}
    .fil13 {fill:#F18E82;fill-rule:nonzero}
    .fil12 {fill:#EC6654;fill-rule:nonzero}
    .fil1 {fill:#ED9E12;fill-rule:nonzero}
    .fil15 {fill:#E77A68;fill-rule:nonzero}
    .fil7 {fill:#DE951C;fill-rule:nonzero}
    .fil17 {fill:#D9AB4B;fill-rule:nonzero}
    .fil8 {fill:#BE7F25;fill-rule:nonzero}
    .fil18 {fill:#CCCCCB;fill-rule:nonzero}
    .fil2 {fill:#AC7025;fill-rule:nonzero}
    .fil10 {fill:#BFD2EE;fill-rule:nonzero}
    .fil23 {fill:#8D3429;fill-rule:nonzero}
    .fil20 {fill:#99ACCB;fill-rule:nonzero}
    .fil6 {fill:#5D80BF;fill-rule:nonzero}
    .fil33 {fill:#575878;fill-rule:nonzero}
    .fil11 {fill:#29A17C;fill-rule:nonzero}
    .fil22 {fill:#444B5C;fill-rule:nonzero}
    .fil14 {fill:#268164;fill-rule:nonzero}
    .fil5 {fill:#365BA5;fill-rule:nonzero}
    .fil16 {fill:#008554;fill-rule:nonzero}
    .fil9 {fill:#2A4B8E;fill-rule:nonzero}
    .fil19 {fill:#006C46;fill-rule:nonzero}
    .fil3 {fill:#E6E6E6;fill-rule:nonzero}
    .fil27 {fill:url(#id0)}
    .fil28 {fill:url(#id1)}
    .fil21 {fill:url(#id2)}
    .fil29 {fill:url(#id3)}
    .fil24 {fill:url(#id4)}
    .fil31 {fill:url(#id5)}
    .fil25 {fill:url(#id6)}
    .fil26 {fill:url(#id7)}
    .fil32 {fill:url(#id8)}
    .fil30 {fill:url(#id9)}
   ]]>
  </style>
  <linearGradient id="id0" gradientUnits="userSpaceOnUse" x1="1458.46" y1="7788.83" x2="1458.46" y2="6504.45">
   <stop offset="0" style="stop-opacity:1; stop-color:#365BA5"/>
   <stop offset="1" style="stop-opacity:1; stop-color:#6080BF"/>
  </linearGradient>
  <linearGradient id="id1" gradientUnits="userSpaceOnUse" xlink:href="#id0" x1="1878.04" y1="4583.48" x2="2992.97" y2="4583.48">
  </linearGradient>
  <linearGradient id="id2" gradientUnits="userSpaceOnUse" xlink:href="#id0" x1="9532.83" y1="4919.49" x2="9532.83" y2="3972.91">
  </linearGradient>
  <linearGradient id="id3" gradientUnits="userSpaceOnUse" xlink:href="#id0" x1="842.6" y1="4374.21" x2="2434.29" y2="4374.21">
  </linearGradient>
  <linearGradient id="id4" gradientUnits="userSpaceOnUse" xlink:href="#id0" x1="2204.1" y1="6671.12" x2="2204.1" y2="5427.58">
  </linearGradient>
  <linearGradient id="id5" gradientUnits="userSpaceOnUse" xlink:href="#id0" x1="715.57" y1="4003.59" x2="2118.15" y2="4003.59">
  </linearGradient>
  <linearGradient id="id6" gradientUnits="userSpaceOnUse" xlink:href="#id0" x1="2412.75" y1="4614.71" x2="3484.45" y2="4614.71">
  </linearGradient>
  <linearGradient id="id7" gradientUnits="userSpaceOnUse" x1="2413.76" y1="4612.34" x2="3474.11" y2="4612.34">
   <stop offset="0" style="stop-opacity:1; stop-color:#2A4B8E"/>
   <stop offset="1" style="stop-opacity:1; stop-color:#486BB1"/>
  </linearGradient>
  <linearGradient id="id8" gradientUnits="userSpaceOnUse" xlink:href="#id7" x1="2206.08" y1="6674.23" x2="2206.08" y2="5432.34">
  </linearGradient>
  <linearGradient id="id9" gradientUnits="userSpaceOnUse" xlink:href="#id7" x1="842.7" y1="4371.91" x2="2434.33" y2="4371.91">
  </linearGradient>
 </defs>
 <g id="Layer_x0020_1">
  <metadata id="CorelCorpID_0Corel-Layer"/>
  <path class="fil0" d="M12195.4 3559.49c0,1965.61 -1593.46,3559.06 -3559.06,3559.06 -1965.57,0 -3559.06,-1593.45 -3559.06,-3559.06 0,-1965.61 1593.49,-3559.07 3559.06,-3559.07 1965.6,0 3559.06,1593.46 3559.06,3559.07z"/>
  <path class="fil1" d="M11655.66 4997.96c9.38,-305.96 132.12,-566.41 -25.84,-837.86 -149.83,-257.43 -331.01,-237.09 -293.48,-519.11 37.61,-281.96 -140.8,-418.67 -403.73,-418.67 -262.95,0 -441.37,136.71 -403.79,418.67 37.56,282.02 -143.69,261.68 -293.44,519.11 -157.95,271.45 -35.26,531.9 -25.83,837.86 9.38,305.91 -220.66,403.27 -220.66,1001.44 0,506.23 267.61,991.18 943.72,991.18 676.1,0 943.66,-484.95 943.66,-991.18 0,-598.17 -230.03,-695.53 -220.61,-1001.44z"/>
  <polygon class="fil2" points="10905.68,9491.14 10959.49,9491.14 10959.49,3831.33 10905.68,3831.33 "/>
  <path class="fil2" d="M10916.67 4722.98c-338.2,-248.19 -447.54,-603.33 -451.99,-618.33l51.49 -15.41c1.04,3.5 109.16,353.26 432.32,590.41l-31.82 43.33z"/>
  <path class="fil2" d="M10947.35 5128.86l-29.54 -44.85c370.23,-244.36 534.94,-744.53 536.56,-749.55l51.15 16.45c-6.85,21.25 -172.27,523.3 -558.17,777.95z"/>
  <path class="fil2" d="M10922.48 5968.15c-578.84,-234.44 -717.64,-639.27 -723.27,-656.42l51.04 -16.85c1.32,3.97 138.06,398.95 692.44,623.4l-20.21 49.87z"/>
  <path class="fil2" d="M10935.49 6408.29l-5.82 -53.46c468.16,-50.87 735.71,-622.91 738.38,-628.67l48.82 22.43c-11.34,24.7 -283.23,605.55 -781.38,659.7z"/>
  <path class="fil3" d="M6655.72 9179.03c0,1711.44 -1387.46,3098.9 -3098.99,3098.9 -1711.49,0 -3098.95,-1387.46 -3098.95,-3098.9 0,-1711.54 1387.46,-3099 3098.95,-3099 1711.53,0 3098.99,1387.46 3098.99,3099z"/>
  <path class="fil0" d="M1830.67 1726.79c-345.18,-236.02 -816.39,-147.53 -1052.41,197.66 -236,345.18 -147.57,816.38 197.67,1052.4 297.71,203.55 688.8,165.24 942.27,-70.47l417.75 83.21 -229.13 -359.1c127.77,-321.72 21.56,-700.11 -276.15,-903.7z"/>
  <path class="fil4" d="M1539.59 2557.97c-16.45,0 -31.73,4.44 -45.33,11.55l-253.13 -182.77c0.88,-5.19 1.57,-10.39 1.57,-15.84 0,-5.46 -0.69,-10.69 -1.57,-15.88l253.16 -182.79c13.57,7.17 28.85,11.57 45.3,11.57 54.2,0 98.13,-43.9 98.13,-98.1 0,-54.18 -43.93,-98.08 -98.13,-98.08 -54.15,0 -98.09,43.9 -98.09,98.08 0,5.46 0.75,10.7 1.58,15.88l-253.18 182.79c-13.57,-7.15 -28.83,-11.6 -45.28,-11.6 -54.2,0 -98.13,43.93 -98.13,98.13 0,54.18 43.93,98.08 98.13,98.08 16.45,0 31.71,-4.4 45.28,-11.55l253.18 182.77c-0.83,5.19 -1.58,10.44 -1.58,15.84 0,54.19 43.94,98.14 98.09,98.14 54.2,0 98.13,-43.95 98.13,-98.14 0,-54.15 -43.93,-98.08 -98.13,-98.08z"/>
  <path class="fil4" d="M9985.89 1174.87l-1708.78 0c-139.89,0 -253.34,113.44 -253.34,253.33l0 409.03c0,139.89 113.45,253.28 253.34,253.28l571.98 0 190.6 261.2 0 -261.2 946.2 0c139.92,0 253.33,-113.39 253.33,-253.28l0 -409.03c0,-139.89 -113.41,-253.33 -253.33,-253.33z"/>
  <path class="fil1" d="M8582.5 1736.87l-3.28 7.77 -7.77 3.23 -31.02 0 -7.71 -3.23 -3.28 -7.77 0 -103.67c0,-16.33 -3.85,-29.37 -11.39,-39.15 -7.64,-9.81 -19.37,-14.69 -35.13,-14.69 -14.4,0 -25.79,4.88 -34.03,14.69 -8.33,9.78 -12.48,22.82 -12.48,39.15l0 103.67 -3.27 7.77 -7.72 3.23 -31.04 0 -7.75 -3.23 -3.24 -7.77 0 -267.66 3.24 -7.76 7.75 -3.27 31.04 0 7.72 3.27 3.27 7.76 0 86.88c7.07,-7.06 15.35,-12.91 24.91,-17.54 9.52,-4.62 20.77,-6.94 33.82,-6.94 16.62,0 30.45,2.58 41.63,7.77 11.17,5.15 20.15,12.08 26.92,20.77 6.85,8.73 11.65,18.9 14.48,30.41 2.88,11.57 4.33,23.74 4.33,36.53l0 109.78z"/>
  <path class="fil1" d="M8746.9 1671.16c0,8.42 2.23,15.18 6.73,20.19 4.54,5.07 12.86,7.56 25.08,7.56l24.91 0 7.73 3.27 3.27 7.76 0 26.93 -3.27 7.77 -7.73 3.23 -30.19 0c-25.56,0 -45.24,-6.16 -58.95,-18.56 -13.74,-12.38 -20.59,-31.36 -20.59,-56.93l0 -87.71 -26.93 0 -7.75 -3.27 -3.28 -7.77 0 -26.92 3.28 -7.76 7.75 -3.28 26.93 0 0 -66.46 3.23 -7.76 7.77 -3.27 31.02 0 7.73 3.27 3.26 7.76 0 66.46 52.67 0 7.73 3.28 3.26 7.76 0 26.92 -3.26 7.77 -7.73 3.27 -52.67 0 0 86.49z"/>
  <path class="fil1" d="M8966.82 1671.16c0,8.42 2.27,15.18 6.72,20.19 4.54,5.07 12.87,7.56 25.09,7.56l24.91 0 7.73 3.27 3.26 7.76 0 26.93 -3.26 7.77 -7.73 3.23 -30.19 0c-25.57,0 -45.25,-6.16 -58.95,-18.56 -13.74,-12.38 -20.6,-31.36 -20.6,-56.93l0 -87.71 -26.92 0 -7.76 -3.27 -3.28 -7.77 0 -26.92 3.28 -7.76 7.76 -3.28 26.92 0 0 -66.46 3.23 -7.76 7.77 -3.27 31.02 0 7.77 3.27 3.23 7.76 0 66.46 52.66 0 7.77 3.28 3.23 7.76 0 26.92 -3.23 7.77 -7.77 3.27 -52.66 0 0 86.49z"/>
  <path class="fil1" d="M9267.98 1653.22c0.83,-7.63 0.83,-15.23 0,-22.87 -1.61,-17.66 -7.06,-30.36 -16.32,-38.13 -9.25,-7.77 -20.55,-11.65 -33.86,-11.65 -13.35,0 -24.57,3.97 -33.68,11.82 -9.13,7.91 -14.36,19.21 -15.67,33.9 -0.57,4.06 -0.87,9.26 -0.87,15.5 0,6.24 0.3,11.43 0.87,15.49 1.31,14.13 6.54,25.3 15.67,33.47 9.11,8.16 20.33,12.22 33.68,12.22 13.31,0 24.61,-3.85 33.86,-11.62 9.26,-7.72 14.71,-20.45 16.32,-38.13zm-37.92 98.74c-8.41,0 -16.01,-0.83 -22.69,-2.44 -6.63,-1.65 -12.51,-3.71 -17.54,-6.16 -5.02,-2.43 -9.3,-5.06 -12.82,-7.94l-8.56 -7.98 0 86.97 -3.27 7.72 -7.76 3.27 -31.04 0 -7.75 -3.27 -3.24 -7.72 0 -267.7 3.24 -7.76 7.75 -3.28 31.04 0 7.76 3.28 3.27 7.76 0 9.38 8.56 -7.94c3.52,-2.88 7.8,-5.49 12.82,-7.98 5.03,-2.45 10.91,-4.5 17.54,-6.11 6.68,-1.62 14.28,-2.45 22.69,-2.45 13.58,0 25.92,2.66 36.92,7.94 11.03,5.33 20.37,12.4 28.14,21.25 7.76,8.82 13.87,19.03 18.37,30.59 4.49,11.56 6.98,23.61 7.55,36.09 0.26,4.1 0.4,8.86 0.4,14.31 0,5.46 -0.14,10.17 -0.4,14.26 -0.57,12.53 -3.06,24.57 -7.55,36.13 -4.5,11.57 -10.61,21.73 -18.37,30.59 -7.77,8.86 -17.11,15.93 -28.14,21.21 -11,5.32 -23.34,7.98 -36.92,7.98z"/>
  <path class="fil1" d="M9455.25 1685.86l7.77 3.27 3.28 7.73 0 40.01 -3.28 7.77 -7.77 3.23 -37.91 0 -7.77 -3.23 -3.27 -7.77 0 -40.01 3.27 -7.73 7.77 -3.27 37.91 0zm0 -142.82l7.77 3.28 3.28 7.72 0 40.01 -3.28 7.77 -7.77 3.22 -37.91 0 -7.77 -3.22 -3.27 -7.77 0 -40.01 3.27 -7.72 7.77 -3.28 37.91 0z"/>
  <path class="fil1" d="M9680.45 1439.42l6.16 -8.38c2.69,-2.58 6.63,-3.88 11.82,-3.88l30.19 0 6.32 2.66 2.67 6.32 -0.82 3.67 -137.94 330.08 -5.71 8.17c-2.71,2.74 -6.77,4.1 -12.22,4.1l-28.97 0 -6.33 -2.67 -2.66 -6.32 0.83 -3.66 136.66 -330.09z"/>
  <path class="fil1" d="M9846.95 1439.42l6.11 -8.38c2.75,-2.58 6.68,-3.88 11.88,-3.88l30.14 0 6.37 2.66 2.62 6.32 -0.78 3.67 -137.93 330.08 -5.72 8.17c-2.74,2.74 -6.8,4.1 -12.25,4.1l-28.98 0 -6.29 -2.67 -2.69 -6.32 0.86 -3.66 136.66 -330.09z"/>
  <path class="fil5" d="M6833.7 1806.02c21.17,54.81 54.15,103.81 95.82,143.82 71.21,68.38 167.73,110.48 274.1,110.48 103.86,0 202.12,-40.01 276.74,-112.67 24.25,-23.64 35.82,-55.23 35.11,-86.65l0.36 0 0 -92.71 -49.18 0c-45.38,-32.51 -108.73,-29.07 -150.1,11.2 -30.5,29.72 -70.64,46.09 -112.93,46.09 -89.31,0 -162,-72.71 -162,-162.02 0,-89.36 72.69,-162.02 162,-162.02 42.29,0 82.43,16.37 112.93,46.04 46.47,45.21 120.78,44.29 166.02,-2.23 22.44,-23.08 33.47,-53.01 33.21,-82.85l0.05 0 0 -92.72 -46.34 0c-73.18,-66.33 -166.91,-103.02 -265.87,-103.02 -106.76,0 -203.58,42.42 -274.84,111.22 -41.32,39.84 -74.05,88.57 -95.08,143.07l-946.37 0c-20.85,-53.88 -53.06,-102.14 -93.73,-141.76 -71.38,-69.59 -168.77,-112.53 -276.15,-112.53 -99.05,0 -192.73,36.69 -265.9,103.02l-46.3 0 0 92.72 0.04 0c-0.26,29.84 10.79,59.82 33.25,82.9 45.29,46.42 119.6,47.39 165.99,2.18 30.5,-29.71 70.59,-46.04 112.92,-46.04 89.31,0 162.02,72.66 162.02,162.02 0,89.31 -72.71,162.02 -162.02,162.02 -42.33,0 -82.42,-16.37 -112.88,-46.09 -41.45,-40.31 -104.77,-43.71 -150.14,-11.2l-49.18 0 0 92.71 0.35 0c-0.7,31.42 10.82,63.01 35.08,86.65 74.57,72.66 172.87,112.67 276.77,112.67 123.35,0 233.62,-56.67 306.31,-145.38 26.62,-32.42 48.17,-69.17 63.57,-108.92l946.37 0z"/>
  <path class="fil6" d="M7316.55 1691.32c-30.5,29.71 -70.64,46.07 -112.93,46.07 -89.31,0 -162,-72.69 -162,-162.02 0,-89.31 72.69,-162 162,-162 42.29,0 82.43,16.36 112.93,46.07 46.47,45.21 120.78,44.29 166.02,-2.22 45.21,-46.47 44.26,-120.78 -2.21,-166.03 -74.62,-72.6 -172.93,-112.61 -276.74,-112.61 -106.76,0 -203.58,42.41 -274.84,111.21 -41.32,39.89 -74.05,88.63 -95.08,143.08l-946.37 0c-20.85,-53.85 -53.06,-102.1 -93.73,-141.76 -71.38,-69.55 -168.77,-112.53 -276.15,-112.53 -103.9,0 -202.15,40.01 -276.72,112.66 -46.43,45.25 -47.44,119.56 -2.19,166.02 45.29,46.42 119.6,47.39 165.99,2.14 30.5,-29.67 70.59,-46.03 112.92,-46.03 89.31,0 162.02,72.69 162.02,162 0,89.33 -72.71,162.02 -162.02,162.02 -42.33,0 -82.42,-16.36 -112.88,-46.04 -46.46,-45.29 -120.74,-44.33 -166.03,2.14 -45.25,46.43 -44.24,120.74 2.14,165.99 74.57,72.65 172.87,112.7 276.77,112.7 123.35,0 233.62,-56.72 306.31,-145.38 26.62,-32.43 48.17,-69.16 63.57,-108.95l946.37 0c21.17,54.84 54.15,103.84 95.82,143.86 71.21,68.37 167.73,110.47 274.1,110.47 103.86,0 202.12,-40.01 276.74,-112.66 46.47,-45.2 47.42,-119.56 2.21,-165.98 -45.24,-46.52 -119.55,-47.43 -166.02,-2.22z"/>
  <path class="fil5" d="M7142.28 7699.84l-1296.36 0c0,1578.67 -704.12,1784.62 -704.12,1784.62l2704.64 0c0,0 -704.16,-205.95 -704.16,-1784.62z"/>
  <path class="fil7" d="M7261.53 8675.97l-0.48 -0.17c-60.3,-209.14 -103.98,-470.99 -115.67,-798.23l0.04 0c11.7,327.55 55.68,589.09 116.11,798.4z"/>
  <path class="fil8" d="M5823.41 8161.7l-0.48 -0.13c9.25,-88.93 16.05,-183.3 19.76,-284l0.14 0c-3.59,100.82 -10.22,195.38 -19.42,284.13z"/>
  <path class="fil9" d="M7261.05 8675.8l-1437.64 -514.1c9.2,-88.75 15.83,-183.31 19.42,-284.13l1302.55 0c11.69,327.24 55.37,589.09 115.67,798.23z"/>
  <path class="fil5" d="M9476.41 7877.57l-5964.63 0c-127.97,0 -231.77,-103.81 -231.77,-231.84l0 -3854.46c0,-127.98 103.8,-231.78 231.77,-231.78l5964.63 0c128.07,0 231.83,103.8 231.83,231.78l0 3854.46c0,128.03 -103.76,231.84 -231.83,231.84z"/>
  <path class="fil4" d="M9268.5 7557.16l-5548.75 0c-60.62,0 -109.7,-49.13 -109.7,-109.74l0 -3457.83c0,-60.57 49.08,-109.7 109.7,-109.7l5548.75 0c60.57,0 109.66,49.13 109.66,109.7l0 3457.83c0,60.61 -49.09,109.74 -109.66,109.74z"/>
  <path class="fil10" d="M9378.16 4312.47l-5768.11 0 0 -333.31c0,-54.81 44.46,-99.27 99.31,-99.27l5569.53 0c54.84,0 99.27,44.46 99.27,99.27l0 333.31z"/>
  <path class="fil6" d="M4088.49 4096.18c0,52.71 -42.72,95.43 -95.42,95.43 -52.71,0 -95.47,-42.72 -95.47,-95.43 0,-52.7 42.76,-95.47 95.47,-95.47 52.7,0 95.42,42.77 95.42,95.47z"/>
  <path class="fil6" d="M4483.94 4096.18c0,52.71 -42.76,95.43 -95.47,95.43 -52.75,0 -95.42,-42.72 -95.42,-95.43 0,-52.7 42.67,-95.47 95.42,-95.47 52.71,0 95.47,42.77 95.47,95.47z"/>
  <path class="fil6" d="M4879.31 4096.18c0,52.71 -42.71,95.43 -95.43,95.43 -52.71,0 -95.47,-42.72 -95.47,-95.43 0,-52.7 42.76,-95.47 95.47,-95.47 52.72,0 95.43,42.77 95.43,95.47z"/>
  <path class="fil10" d="M7300.23 6218.22l-2713.7 0c-57.6,0 -104.38,-46.69 -104.38,-104.29l0 -15.88c0,-57.64 46.78,-104.37 104.38,-104.37l2713.7 0c57.69,0 104.37,46.73 104.37,104.37l0 15.88c0,57.6 -46.68,104.29 -104.37,104.29z"/>
  <path class="fil10" d="M7300.23 6636.49l-2713.7 0c-57.6,0 -104.38,-46.69 -104.38,-104.33l0 -15.88c0,-57.64 46.78,-104.33 104.38,-104.33l2713.7 0c57.69,0 104.37,46.69 104.37,104.33l0 15.88c0,57.64 -46.68,104.33 -104.37,104.33z"/>
  <path class="fil10" d="M5644.72 7054.76l-1058.19 0c-57.6,0 -104.38,-46.73 -104.38,-104.33l0 -15.92c0,-57.6 46.78,-104.29 104.38,-104.29l1058.19 0c57.6,0 104.33,46.69 104.33,104.29l0 15.92c0,57.6 -46.73,104.33 -104.33,104.33z"/>
  <path class="fil6" d="M8326.67 5611.1l-3665.09 0c-198.49,0 -359.42,-160.88 -359.42,-359.37 0,-198.48 160.93,-359.36 359.42,-359.36l3665.09 0c198.49,0 359.37,160.88 359.37,359.36 0,198.49 -160.88,359.37 -359.37,359.37z"/>
  <path class="fil5" d="M8326.67 5611.1l-216.9 0c-198.49,0 -359.37,-160.88 -359.37,-359.37 0,-198.48 160.88,-359.36 359.37,-359.36l216.9 0c198.49,0 359.37,160.88 359.37,359.36 0,198.49 -160.88,359.37 -359.37,359.37z"/>
  <path class="fil4" d="M8103.75 5274.77c-43.73,-43.76 -43.73,-114.93 0,-158.69 21.9,-21.87 50.66,-32.81 79.37,-32.81 28.75,0 57.46,10.94 79.37,32.81 43.72,43.76 43.72,114.93 0,158.69 -42.42,42.37 -116.24,42.37 -158.74,0zm331.48 144.74l-132.08 -132.13c45.59,-59.48 41.8,-144.95 -12.61,-199.36 -59.3,-59.3 -155.64,-59.21 -214.81,0 -59.26,59.2 -59.26,155.59 0,214.8 28.67,28.72 66.81,44.52 107.39,44.52 33.86,0 65.66,-11.53 92.02,-31.87l132.08 132.05 28.01 -28.01z"/>
  <path class="fil10" d="M5530.26 5315.86c-3.6,3.6 -7.6,6.39 -12.8,8.79 -5.19,2.4 -11.19,4.4 -17.6,5.6 -6.8,1.2 -13.59,2 -20.39,2 -10,0 -18.4,-1.6 -24.41,-4.8 -6.39,-2.8 -11.19,-7.6 -14.79,-13.6 -1.2,-2.4 -3.2,-3.99 -5.19,-4.4 -2.4,-0.4 -4.41,-0.79 -6,-0.79l-14.41 0c-3.19,0 -6,1.2 -7.99,3.19 -2.4,2 -4.01,4.8 -4.41,7.61 -0.39,5.19 0.81,10.79 4,15.99 2.81,5.6 7.61,10.8 14.41,15.2 6.79,4.8 14.79,8.79 24.79,11.6 10,2.8 21.19,4.39 34.39,4.39 14,0 26.41,-1.59 37.21,-4.8 10.79,-2.79 19.98,-7.19 27.59,-12.79 7.6,-5.2 13.59,-11.6 18.39,-18.8 4.41,-6.8 7.61,-14.39 9.21,-22.4 1.59,-6.8 2,-13.6 1.2,-20 -0.81,-6.39 -3.21,-12.39 -6.81,-17.99 -3.99,-5.21 -9.6,-10.01 -16.79,-14.4 -7.6,-4.4 -17.2,-7.61 -28.8,-10.4 -11.19,-2.8 -20.39,-5.2 -28,-7.2 -7.59,-2 -13.2,-3.99 -17.59,-6.39 -4.4,-2.4 -7.61,-5.21 -8.81,-8.41 -1.59,-3.2 -1.99,-7.2 -0.79,-12.4 1.99,-8 7.2,-14.39 16,-18.8 8.79,-4.39 20.39,-6.8 34.79,-6.8 12,0 20.39,1.61 25.21,4.4 4.79,3.21 8.39,7.2 10.79,11.6 1.2,2.4 3.19,4 5.59,4.41 2.01,0.79 4.01,1.2 5.61,1.2l13.19 0c2.81,0 6,-1.2 8.81,-3.21 2.8,-2 4,-4.79 4,-7.59 0,-4.8 -1.2,-10.01 -4,-15.2 -2.81,-5.21 -7.2,-10.4 -13.21,-14.81 -6,-4.39 -13.2,-7.99 -22.39,-10.79 -9.2,-2.8 -20.4,-4.4 -33.6,-4.4 -13.2,0 -24.39,1.6 -34.4,4.4 -9.99,2.8 -18.39,6.8 -25.19,11.99 -7.2,5.21 -12.8,11.21 -17.2,18 -4.4,6.8 -7.19,14.41 -8.8,22.4 -1.6,6.8 -1.99,13.6 -1.6,20 0.4,6.8 2.4,12.8 6,18.4 3.2,5.59 8,10.39 14.79,14.4 6.41,4.39 14.81,7.59 25.21,9.99 10.8,2.4 20.4,4.8 28.8,6.81 8,2 14.79,4.4 20,6.8 5.19,2.4 8.79,5.19 10.79,8.4 1.99,3.6 2.4,7.59 1.2,12.8 -0.8,3.99 -2.8,7.59 -6,10.8zm169.17 -58.8c-1.2,6 -2.4,12.4 -2.81,18.4 -1.59,13.2 -0.79,25.2 2.01,35.99 2.79,11.2 7.6,20.8 14.39,28.8 6.81,8.4 15.2,14.8 25.2,19.19 10,4.8 22,7.2 35.2,7.2 14,0 26.39,-1.99 37.19,-5.59 10.81,-3.6 20,-7.6 27.61,-12.8 7.59,-5.21 13.59,-10.4 18.39,-16.4 4.4,-5.6 8,-10.4 10.01,-14.4 1.2,-2.79 1.2,-5.6 -0.41,-7.59 -1.99,-2.01 -4.39,-3.2 -7.2,-3.2l-18 0c-3.2,0 -5.6,0.39 -7.59,1.19 -2.01,0.81 -4.01,2.4 -6.41,4.41 -5.59,5.19 -12.39,9.6 -20,13.59 -7.99,4.4 -19.19,6.4 -33.99,6.4 -14,0 -24.4,-5.2 -32,-15.6 -7.6,-10.39 -10.4,-24.8 -8,-43.19l139.19 0c2.8,0 5.6,-1.2 8.39,-3.21 2.4,-1.99 4.01,-4.79 4.8,-7.59l2.01 -10.8c2.79,-14.8 2.79,-28.4 0.39,-40.8 -2.4,-12.39 -6.79,-22.8 -13.59,-32 -6.8,-9.19 -15.2,-15.99 -25.6,-21.19 -10.39,-4.8 -22.39,-7.2 -35.6,-7.2 -13.2,0 -25.59,2.4 -37.19,6.8 -11.6,4.4 -22.4,10.79 -31.59,18.8 -9.2,8 -17.21,17.2 -24.01,28 -6.79,10.8 -12.39,21.99 -15.99,34.4 -2.01,5.99 -3.6,12.39 -4.8,18.39zm41.59 -17.2c2.8,-8 6.81,-15.6 11.61,-22.39 4.8,-6.81 10.39,-12.41 16.39,-17.21 5.99,-4.8 12.8,-8.4 20,-11.19 6.8,-2.81 14.39,-4.01 22,-4.01 15.6,0 27.59,5.21 35.6,15.2 7.59,10.4 9.99,23.6 7.19,39.6l-112.79 0zm304.8 -65.99c-18.8,15.59 -31.99,37.99 -39.6,67.59 -1.2,4 -2,8.4 -3.2,12.8 -1.2,4.8 -1.99,9.19 -2.4,13.2 -2.4,14.79 -2.4,27.99 0,40 2.4,12.39 6.8,22.79 13.21,31.59 6,8.81 13.99,15.6 23.99,20.39 10,4.8 21.2,7.2 33.59,7.2 16.41,0 29.21,-2.79 38.81,-7.99 9.18,-5.2 17.19,-11.6 23.59,-19.21l-2.8 12.41c-0.4,2.8 0,5.6 2,7.59 1.6,2.01 4,3.21 6.8,3.21l14.8 0c2.79,0 5.6,-1.2 8.39,-3.21 2.4,-1.99 4.01,-4.79 4.41,-7.59l39.59 -186.38c0.41,-2.8 0,-5.61 -1.6,-7.6 -2,-2 -4.4,-3.2 -7.19,-3.2l-14.81 0c-2.8,0 -5.59,1.2 -7.99,3.2 -2.81,1.99 -4.4,4.8 -4.8,7.6l-2.4 12.39c-1.61,-2.79 -4.01,-6 -6.8,-9.19 -3.2,-3.2 -7.2,-6 -11.6,-8.81 -4.8,-2.79 -10.41,-4.79 -16.8,-6.79 -6.39,-1.6 -13.61,-2.4 -22,-2.4 -25.2,0 -46.79,7.6 -65.19,23.2zm91.19 125.18c-4.8,6.8 -10.39,12.8 -16.8,17.6 -6.4,5.21 -13.2,8.81 -20.79,11.6 -7.61,2.8 -15.6,4 -24.01,4 -15.6,0 -26.79,-5.59 -33.59,-16.8 -6.81,-11.19 -8.8,-26.4 -5.61,-45.59 0.41,-4 1.2,-7.61 2.01,-11.21 0.39,-3.6 1.59,-7.2 2.79,-11.19 5.21,-19.2 13.61,-34.4 25.61,-45.59 11.6,-11.21 26.39,-16.81 43.99,-16.81 16.8,0 29.2,5.21 36.8,15.2 7.59,10.4 9.6,25.2 6.39,44 -0.39,4 -1.59,9.2 -2.79,15.59 -1.2,6.81 -2.4,12.01 -3.6,16.01 -2.4,8.4 -6,16.4 -10.4,23.19zm295.53 -144.38c-12,0 -21.99,2 -29.59,5.6 -7.6,3.6 -15.2,9.6 -22,17.59l2.4 -12.39c0.4,-2.8 0,-5.61 -1.59,-7.6 -1.61,-2 -4.01,-3.2 -6.81,-3.2l-14.79 0c-2.81,0 -5.6,1.2 -8.41,3.2 -2.8,1.99 -4.39,4.8 -4.8,7.6l-39.59 186.38c-0.4,2.8 0,5.6 2,7.59 1.6,2.01 4,3.21 6.79,3.21l14.81 0c2.79,0 5.6,-1.2 8.4,-3.21 2.4,-1.99 3.99,-4.79 4.4,-7.59l24.8 -116.78c3.19,-15.21 10.39,-26.81 21.19,-34.4 10.81,-7.61 23.59,-11.6 38.8,-11.6l19.19 0c2.81,0 5.6,-1.2 8.4,-3.21 2.4,-2 4.01,-4.8 4.4,-7.59l2.8 -12.8c0.41,-2.8 0,-5.61 -1.6,-7.6 -1.59,-2 -3.99,-3.2 -6.8,-3.2l-22.4 0zm147.2 103.98c1.2,-4.8 2.4,-9.6 3.6,-13.99 3.2,-10.79 7.59,-19.6 13.2,-27.19 5.6,-7.61 11.99,-13.61 18.8,-18.41 6.79,-4.8 13.59,-8.4 21.2,-10.8 7.19,-2 13.98,-3.2 20.79,-3.2 12.8,0 22.4,2.41 29.2,7.21 6.79,4.8 11.19,12.79 13.99,24 1.2,4.39 2.4,7.19 4.4,8.39 1.61,1.6 4.01,2.4 6.8,2.4l13.6 0c2.81,0 5.6,-1.2 8,-3.2 2.4,-2 3.6,-4.8 3.6,-7.59 0,-6.41 -1.2,-13.61 -4,-21.2 -2.8,-7.6 -7.19,-14.81 -13.19,-21.6 -6.41,-6.41 -14.81,-12 -24.8,-16.4 -10.01,-4.4 -22.8,-6.4 -37.6,-6.4 -13.2,0 -25.2,2.4 -36.8,6.8 -11.6,4.4 -22.4,10.79 -31.59,18.8 -9.2,8.39 -17.6,17.99 -24.4,28.79 -7.2,10.8 -12.8,22.81 -16.4,35.6 -1.2,4.4 -2.4,10 -3.6,16 -1.2,6.4 -2.4,11.6 -3.21,15.99 -1.99,12.81 -1.99,24.8 0.81,36.01 2.79,11.59 7.61,21.59 14.4,29.99 6.8,8.8 15.2,15.6 25.99,20.4 10.41,5.19 22.4,7.59 36,7.59 15.61,0 29.6,-2.4 41.2,-6.79 11.6,-4.4 21.2,-10 29.59,-16.81 8.01,-6.79 14.4,-13.99 19.61,-21.59 4.8,-7.6 8.4,-14.4 10.39,-20.4 1.2,-2.79 0.8,-5.6 -1.2,-7.59 -1.99,-2.01 -4.39,-3.21 -7.2,-3.21l-14.79 0c-2.81,0 -5.61,0.81 -7.61,2.01 -2.4,1.59 -5.19,4.39 -7.99,8.79 -7.2,11.21 -16,19.2 -26.8,24 -10.8,4.8 -22.8,7.2 -35.6,7.2 -6.8,0 -12.8,-1.2 -18.39,-3.6 -5.6,-1.99 -10.4,-5.59 -14,-10.39 -3.6,-4.8 -6.41,-10.8 -8,-18.41 -1.6,-7.59 -1.6,-16.4 -0.4,-27.2 0.4,-4.39 1.2,-8.79 2.4,-14zm464.74 -18.39c2.79,-14 3.2,-26.39 1.2,-37.6 -2.01,-11.19 -6.41,-20.79 -12.81,-28.4 -6.39,-7.59 -14.79,-13.2 -25.19,-17.59 -10.4,-4 -22.4,-6 -35.99,-6 -8.01,0 -15.2,0.8 -21.61,2.4 -6.4,1.6 -12,3.6 -17.19,6 -5.2,2.8 -9.6,5.59 -13.2,8.8 -3.6,3.6 -7.2,6.8 -10.4,9.99l18.8 -88.38c0.39,-2.8 0,-5.61 -1.6,-7.6 -2,-2 -4.4,-3.2 -7.21,-3.2l-14.79 0c-2.8,0 -5.6,1.2 -8,3.2 -2.8,1.99 -4.39,4.8 -4.8,7.6l-56 262.37c-0.39,2.8 0,5.6 2.01,7.59 1.59,2.01 3.99,3.21 6.79,3.21l14.8 0c2.8,0 5.61,-1.2 8.4,-3.21 2.4,-1.99 4,-4.79 4.41,-7.59l22.4 -105.59c4.39,-20.4 13.19,-35.99 25.98,-46 12.41,-9.99 28.4,-15.2 47.2,-15.2 34.79,0 47.59,20.41 38.8,61.2l-22.4 105.59c-0.39,2.8 0,5.6 2,7.59 1.6,2.01 4,3.21 6.79,3.21l14.81 0c2.8,0 5.6,-1.2 8.4,-3.21 2.4,-1.99 3.99,-4.79 4.4,-7.59l24 -111.59z"/>
  <path class="fil11" d="M5890.99 9484.46c-286.92,-221.31 -958.05,-669.48 -1530.71,-526.31 -328.68,-434.34 -815.86,-405.01 -1074.07,-305.22 -269.4,-372.89 -1709.32,-546.16 -1883.89,831.53l4488.67 0z"/>
  <path class="fil11" d="M7097.2 9484.46c286.94,-221.31 958.08,-669.48 1530.72,-526.31 328.69,-434.34 815.87,-405.01 1074.12,-305.22 269.35,-372.89 1709.32,-546.16 1883.89,831.53l-4488.73 0z"/>
  <path class="fil7" d="M3709.01 2663.78c-410.42,0 -760.63,-257.91 -897.29,-620.51 -39.65,-105.16 -61.35,-219.09 -61.35,-338.12 0,-118.99 21.7,-232.96 61.35,-338.07 136.66,-362.64 486.87,-620.56 897.29,-620.56 529.45,0 958.63,429.18 958.63,958.63 0,529.45 -429.18,958.63 -958.63,958.63z"/>
  <path class="fil4" d="M4631.86 1663.52c0,503.79 -408.36,912.16 -912.11,912.16 -503.76,0 -912.12,-408.37 -912.12,-912.16 0,-503.76 408.36,-912.12 912.12,-912.12 503.75,0 912.11,408.36 912.11,912.12z"/>
  <path class="fil12" d="M3719.75 1145.81c-285.46,0 -517.72,232.26 -517.72,517.75 0,285.46 232.26,517.71 517.72,517.71 285.49,0 517.71,-232.25 517.71,-517.71 0,-285.49 -232.22,-517.75 -517.71,-517.75zm0 1233.17c-394.5,0 -715.46,-320.97 -715.46,-715.42 0,-394.53 320.96,-715.46 715.46,-715.46 394.48,0 715.41,320.93 715.41,715.46 0,394.45 -320.93,715.42 -715.41,715.42z"/>
  <path class="fil12" d="M3719.75 1507.39c-86.14,0 -156.17,70.04 -156.17,156.17 0,86.09 70.03,156.13 156.17,156.13 86.12,0 156.15,-70.04 156.15,-156.13 0,-86.13 -70.03,-156.17 -156.15,-156.17zm0 510c-195.14,0 -353.88,-158.74 -353.88,-353.83 0,-195.13 158.74,-353.86 353.88,-353.86 195.16,0 353.87,158.73 353.87,353.86 0,195.09 -158.71,353.83 -353.87,353.83z"/>
  <path class="fil5" d="M4914.21 1034.41l-1003.87 526.1c-14.36,7.49 -32.12,1.95 -39.62,-12.4l-17.11 -32.55 -144.47 155.37c-13.09,14.05 -1.23,36.75 17.81,33.99l210 -30.36 -17.06 -32.59c-7.5,-14.36 -1.96,-32.08 12.39,-39.62l1003.88 -526.05 -21.95 -41.89z"/>
  <polygon class="fil4" points="4749.76,1120.58 4695,1149.3 4716.34,990.08 4771.14,961.37 "/>
  <polygon class="fil12" points="4804.56,1091.87 4749.76,1120.58 4771.14,961.37 4825.9,932.65 "/>
  <polygon class="fil4" points="4859.37,1063.16 4804.56,1091.87 4825.9,932.65 4880.67,903.94 "/>
  <polygon class="fil12" points="4914.17,1034.46 4859.37,1063.16 4880.67,903.94 4935.46,875.24 "/>
  <polygon class="fil4" points="4771.97,1162.9 4717.17,1191.66 4860.28,1264.71 4915,1235.99 "/>
  <polygon class="fil12" points="4826.78,1134.2 4771.97,1162.9 4915,1235.99 4969.81,1207.33 "/>
  <polygon class="fil4" points="4881.58,1105.53 4826.78,1134.2 4969.81,1207.33 5024.61,1178.58 "/>
  <polygon class="fil12" points="4936.39,1076.78 4881.58,1105.53 5024.61,1178.58 5079.42,1149.87 "/>
  <path class="fil4" d="M6331.3 2198.55c0,31.73 -25.65,57.43 -57.41,57.43 -31.73,0 -57.39,-25.7 -57.39,-57.43 0,-31.71 25.66,-57.41 57.39,-57.41 31.76,0 57.41,25.7 57.41,57.41z"/>
  <path class="fil4" d="M6331.3 2635.06c0,31.68 -25.65,57.43 -57.41,57.43 -31.73,0 -57.39,-25.75 -57.39,-57.43 0,-31.72 25.66,-57.46 57.39,-57.46 31.76,0 57.41,25.74 57.41,57.46z"/>
  <path class="fil4" d="M6331.3 3071.53c0,31.72 -25.65,57.47 -57.41,57.47 -31.73,0 -57.39,-25.75 -57.39,-57.47 0,-31.72 25.66,-57.42 57.39,-57.42 31.76,0 57.41,25.7 57.41,57.42z"/>
  <path class="fil13" d="M8778.89 8366.47l74.27 710.92c4.8,45.61 -17.9,89.59 -57.91,112.01 -130.07,72.92 -406.84,232.83 -397.85,268.79 11.69,46.95 551.7,35.21 716.07,-70.43 164.37,-105.63 5.85,-181.94 0,-369.79 -5.89,-187.8 5.85,-651.5 5.85,-651.5l-340.43 0z"/>
  <path class="fil5" d="M9113.47 9387.76c126.41,-81.24 61.97,-145.34 22.78,-255.91l-207.65 85.7c-25.31,-25.26 -63.44,-44.6 -99.62,-58.6 -9.25,11.91 -19.99,22.77 -33.73,30.45 -130.07,72.92 -406.84,232.83 -397.85,268.79 11.69,46.95 551.7,35.21 716.07,-70.43z"/>
  <path class="fil13" d="M9912.84 8325.28l340.64 628.38c21.87,40.31 17.76,89.66 -10.6,125.66 -92.28,117.11 -286.84,370.8 -264.76,400.56 28.8,38.87 523.2,-178.55 634.61,-339.04 111.44,-160.53 -64.19,-170.35 -141.46,-341.65 -77.28,-171.31 -243.87,-604.2 -243.87,-604.2l-314.56 130.29z"/>
  <path class="fil14" d="M10361.23 8535.38c-7.73,-19.2 -15.42,-38.39 -22.96,-57.42l0 0c7.54,19.03 15.23,38.22 22.96,57.42z"/>
  <path class="fil15" d="M10444.26 8737.41l-322.9 -27.59 -125.7 -231.86 342.61 0c7.54,19.03 15.23,38.22 22.96,57.42 28.88,71.99 58.2,143.73 83.03,202.03z"/>
  <path class="fil7" d="M8803.02 8597.34l0 0 -12.48 -119.38 0 0 12.48 119.38zm311.67 -6.72c0.7,-41.23 1.44,-79.67 2.14,-112.66l0 0c-0.7,32.99 -1.44,71.43 -2.14,112.66z"/>
  <path class="fil15" d="M9114.17 8623.91l-311.15 -26.57 -12.48 -119.38 326.29 0c-0.7,32.99 -1.44,71.43 -2.14,112.66 -0.17,10.9 -0.34,22.04 -0.52,33.29z"/>
  <path class="fil5" d="M10612.73 9140.84c85.69,-123.43 1.69,-157.99 -76.88,-245.18l-159.05 158.62c-33.08,-13.67 -75.66,-16.9 -114.45,-16.02 -3.97,14.57 -9.73,28.71 -19.47,41.06 -92.28,117.11 -286.84,370.8 -264.76,400.56 28.8,38.87 523.2,-178.55 634.61,-339.04z"/>
  <path class="fil16" d="M9189.66 5114.77l767.82 0c0,0 189.01,205.42 153.76,586.95 -35.16,381.53 -23.42,1021.3 82.21,1220.88 105.64,199.53 187.84,340.42 170.21,516.49 -17.62,176.1 265.47,297.23 258.96,569.72 -3.09,128.86 32.08,227.25 77.07,299.94 45.73,73.91 -4.71,169.21 -91.67,169.21l-1876.08 0 -80.77 -1121.61c-16.8,-233.91 3.85,-468.7 61.31,-696.13 117.81,-466.53 331.18,-1265.46 477.18,-1545.45z"/>
  <path class="fil17" d="M10111.11 6542.59l0 0c-0.13,-1.44 -0.26,-2.8 -0.39,-4.23 0,0.05 0,0.05 0,0.05 0.13,1.38 0.26,2.78 0.39,4.18zm-16.8 -1132.68c-39.96,-178.86 -123.09,-279.35 -135.3,-293.45 12.21,14.1 95.34,114.59 135.3,293.45l0 0z"/>
  <path class="fil8" d="M10110.72 6538.41c0,0 0,0 0,-0.05 -25,-267.87 -21.16,-601.36 0.52,-836.64 10.43,-112.96 1.23,-210.49 -16.93,-291.81l0 0c18.16,81.32 27.41,178.85 16.97,291.81 -21.72,235.33 -25.56,568.77 -0.56,836.69z"/>
  <path class="fil18" d="M9070.23 5408.29l0 0c42.29,-121.35 82.96,-223.58 119.43,-293.52 -36.47,69.94 -77.11,172.17 -119.43,293.52z"/>
  <path class="fil19" d="M10111.11 6542.59c-729.24,-185.97 -966.09,-808.35 -1040.88,-1134.3 42.32,-121.35 82.96,-223.58 119.43,-293.52l767.82 0c0,0 0.52,0.57 1.53,1.69 12.21,14.1 95.34,114.59 135.3,293.45 18.16,81.32 27.36,178.85 16.93,291.81 -21.68,235.28 -25.52,568.77 -0.52,836.64 0.13,1.43 0.26,2.79 0.39,4.23z"/>
  <path class="fil13" d="M9134.98 3745.23c-98.31,73.83 -643.67,583.04 -643.67,583.04l123.21 -563.48 -146.31 -19.56c0,0 -446.45,764.99 -164.71,879.45 281.74,114.44 812.9,-478.36 812.9,-478.36 0,0 151.63,-224.02 18.58,-401.09z"/>
  <polygon class="fil9" points="8589.39,3879.89 8589.39,3879.89 8614.52,3764.79 "/>
  <polygon class="fil20" points="8583.67,3906.02 8589.39,3879.89 8589.39,3879.89 8583.67,3905.99 "/>
  <path class="fil9" d="M8467.87 3745.85c0,-0.05 0,-0.05 0.05,-0.09 -0.05,0.04 -0.05,0.04 -0.05,0.09zm0.26 -0.45c0,-0.03 0,-0.03 0.05,-0.08 -0.05,0.05 -0.05,0.05 -0.05,0.08zm0.05 -0.08l0 -0.04 0 0.04zm0 -0.04l0 0 0 0zm0.03 -0.05l0 0 0 0z"/>
  <path class="fil15" d="M8344.25 3997.13c-1.39,0 -2.74,0 -4.14,0 61.44,-136.26 122.61,-242.47 127.76,-251.28 0,-0.05 0,-0.05 0.05,-0.09 0.08,-0.13 0.17,-0.26 0.21,-0.36 0,-0.03 0,-0.03 0.05,-0.08l0 0 0 -0.04 0 0 0 0c0.03,0 0.03,-0.05 0.03,-0.05l0 0 0 0 146.31 19.56 -25.13 115.1 -5.72 26.13c-39.35,34.65 -121.86,91.11 -239.42,91.11z"/>
  <path class="fil13" d="M9103.65 3029.16l-15.61 64.58 48.91 7.82c0,0 -44.99,344.35 271.97,314.99l0 268.04 299.32 -25.44 -56.76 -792.39 -453.88 -338.46c0,0 -260.23,236.75 -93.95,500.86z"/>
  <path class="fil17" d="M9708.24 3659.15l-29.45 -411.16 0 0 29.45 411.16zm-302.9 -242.3c1.18,-0.09 2.35,-0.21 3.58,-0.3l0 0c-1.23,0.12 -2.4,0.21 -3.58,0.3z"/>
  <path class="fil15" d="M9408.92 3684.59l0 -268.04c-1.23,0.09 -2.4,0.21 -3.58,0.3 -10.95,0.91 -21.47,1.36 -31.55,1.36 -28.58,0 -53.63,-3.54 -75.97,-9.52 3.58,0.44 7.68,0.7 12.4,0.7 59.64,0 206.95,-37.44 368.57,-161.4l29.45 411.16 -299.32 25.44z"/>
  <path class="fil21" d="M9179.01 5201.58l0 -0.24 -1.63 0c-15.34,-2.54 -27.83,-6.57 -37.64,-12.88l0 -0.22 -0.33 0c-15.02,-9.81 -23.54,-25.1 -25.85,-48.76l0 -3.6 -0.29 0c-0.54,-7.83 -0.46,-16.51 0.26,-26.18l0.03 0 0 -0.29c1.2,-16 4.14,-34.7 8.73,-56.43l0 -0.03c4.18,-19.79 9.71,-42.09 16.62,-67.3 66.5,-242.59 39.14,-532.16 -50.87,-653.45 -1.73,-2.34 -3.4,-4.67 -5.02,-6.99l0 -0.92 -0.63 0c-2.86,-4.1 -5.56,-8.22 -8.1,-12.32l0 -0.76 -0.49 0c-1.32,-2.16 -2.62,-4.3 -3.87,-6.45l0 -2.27 -1.31 0c-6.47,-11.38 -11.81,-22.7 -16.15,-33.96l0 -0.96 -0.37 0c-1.45,-3.78 -2.76,-7.56 -3.99,-11.32l0 -1.77 -0.56 0c-3.73,-11.78 -6.41,-23.5 -8.17,-35.11l0 -4.16 -0.6 0c-4.18,-31.41 -1.76,-62.07 4.5,-91.62l0.47 0 0 -2.19c2.42,-11.07 5.37,-21.99 8.71,-32.73l0.01 0 0 -0.05c9.76,-31.39 22.83,-61.25 35.57,-89.04 43.02,-93.9 46.94,-254.35 46.94,-254.35l83.39 -24.39c34.07,-9.94 57.51,-41.19 57.51,-76.66l0 -18.99c0,-28.93 21.91,-52.77 50.07,-55.75l1.41 0 0 -0.13c1.5,-0.12 3.01,-0.18 4.54,-0.18l408.32 0c30.94,0 56.07,25.13 56.07,56.06 0,42.12 33.04,76.97 75.14,79.37 45.86,2.63 74.53,4.42 74.53,4.42l84.83 537.13c-27.67,148.7 -34.92,512.6 -7.56,712.15 0.83,6.03 1.58,11.92 2.28,17.67l0 2.87 0.33 0c3.71,31.64 5.34,59.12 4.85,82.91l-0.82 0 0 17.81c-0.79,10.92 -2.1,20.96 -3.94,30.18l-0.42 0 0 1.98c-1.16,5.45 -2.48,10.6 -4.01,15.48l-0.36 0 0 1.16c-2.44,7.55 -5.34,14.41 -8.7,20.65l-0.02 0 0 0.05c-2.54,4.7 -5.36,9.03 -8.41,13.05l-0.32 0 0 0.43c-1.05,1.35 -2.13,2.66 -3.23,3.93l-1.14 0 0 1.28 -2.91 3.08 -1.46 0 0 1.44c-1.03,1.01 -2.11,1.97 -3.2,2.92l-1.15 0 0 0.98c-11.34,9.54 -25.09,16.3 -41.27,20.84l-2.37 0 0 0.63c-19.41,5.11 -42.23,7.19 -68.51,7.19 -125.21,0 -324.76,0 -536.07,0 -71.67,0 -125.76,2.68 -163.37,-3.21z"/>
  <path class="fil4" d="M10562.93 5830.44l-1073.5 0c-36.27,0 -63.41,-33.2 -56.21,-68.76l144.64 -712.71c5.46,-26.76 28.93,-45.95 56.2,-45.95l1073.49 0c36.25,0 63.39,33.25 56.19,68.72l-144.6 712.76c-5.46,26.71 -28.93,45.94 -56.21,45.94z"/>
  <path class="fil13" d="M9898.44 3706.13c186.53,-92.28 611.96,698.46 611.96,1062.36 0,363.9 -363.91,927.39 -363.91,927.39 0,0 4.06,79.46 -44.93,138.06 -48.96,58.55 -204.52,82.03 -222.1,38 -17.67,-44.02 0,-96.82 0,-96.82 0,0 -88.09,76.27 -105.68,58.68 -17.59,-17.58 46.95,-152.59 240.68,-240.68l263.12 -791.6c0,0 -281.09,-577.23 -348.29,-747.14 -66.49,-168.25 -139.41,-294.53 -30.85,-348.25z"/>
  <path class="fil13" d="M8473.67 3524.14c56.51,-95.3 154.59,-58.69 203.51,-39.09 48.92,19.55 78.23,148.65 58.69,179.98 -19.56,31.3 -36.61,0 -36.61,0 0,0 -8.03,152.6 -137.49,152.6 -129.5,0 -150.71,-187.81 -88.1,-293.49z"/>
  <polygon class="fil12" points="8641.62,3678.05 8516.39,3662.15 8527.52,3251.96 8652.74,3267.84 "/>
  <polygon class="fil4" points="7535.11,2755.5 7164.75,2596.85 7174.66,2519.17 7542.18,2699.52 "/>
  <polygon class="fil4" points="7508.76,2963.24 7128.14,2885.05 7138.05,2807.42 7515.83,2907.3 "/>
  <polygon class="fil4" points="7482.36,3170.97 7091.58,3173.28 7101.43,3095.62 7489.42,3115.04 "/>
  <polygon class="fil4" points="7455.97,3378.76 7054.97,3461.48 7064.84,3383.86 7463.08,3322.77 "/>
  <path class="fil22" d="M9166.27 2676.99c0,0 23.48,238.68 348.24,316.96l49.3 1098.26c1.97,43.37 59.34,57.17 80.73,19.33 21.29,-37.65 46.25,-88.1 73.52,-154.99 86.05,-211.32 238.64,-93.89 238.64,-340.42 0,-246.53 43.05,-1198.36 -523.35,-1198.36 -568.37,0 -587.92,576.18 -329.7,611.39 0,0 -7.81,-191.72 62.62,-352.17z"/>
  <polygon class="fil12" points="8516.22,3382.91 7670.86,3559.18 7788.15,2634.37 8562.73,3016.12 "/>
  <path class="fil12" d="M8748.3 3387.17l-83.6 -10.6 40.24 -317.25 83.63 10.64c81.39,10.3 138.98,84.65 128.68,166.07l-2.83 22.42c-10.35,81.43 -84.7,139.03 -166.12,128.72z"/>
  <polygon class="fil23" points="8660.73,3407.68 8515.39,3389.28 8563.56,3009.75 8708.91,3028.2 "/>
  <path class="fil23" d="M7862.1 3113.59c-32.38,255.39 -118.03,454.88 -191.24,445.59 -73.26,-9.3 -106.38,-223.84 -74,-479.23 32.37,-255.39 118.02,-454.88 191.29,-445.58 73.26,9.29 106.37,223.84 73.95,479.22z"/>
  <path class="fil24" d="M2777.96 8068.09l0 -0.02 -0.02 0 -21.8 -61.02 0 -0.07 -0.03 0 -320.16 -895.59c-2.39,5.72 -4.74,11.63 -7.06,17.68l0 0.04c2.31,-6.05 4.67,-11.99 7.06,-17.72l-185.96 -234.48 0 -0.05 -0.04 0 -100.32 -126.49 0 -0.04 -0.02 0 -100.34 -126.52 0 -0.02 -0.02 0 -83.18 -104.89 -17.16 -21.63 0 -0.01 -0.01 0 -100.35 -126.52 0 -0.03 -0.01 0 -100.34 -126.5 0 -0.03 -0.02 0 -100.33 -126.5 0 -0.04 -0.04 0 -111.85 -141.03c0,0 -9.67,-14.83 -23.39,-41.72l0 -0.52 -0.26 0 -4.09 -8.15 0 -0.57 -0.28 0 -4.09 -8.41 0 -0.32 -0.16 0c-5.46,-11.45 -11.31,-24.43 -17.29,-38.77l0 -0.5 -0.21 0c-11.78,-28.36 -24.02,-62.1 -34.69,-100.21l0 -0.15 -0.04 0c-1.47,-5.27 -2.92,-10.61 -4.33,-16.05l0 -1.4 -0.37 0c-1.37,-5.33 -2.7,-10.75 -3.99,-16.23l0 -1.22 -0.3 0c-3.07,-13 -5.89,-26.41 -8.44,-40.21l0 -3.43 -0.63 0c-1.33,-7.41 -2.56,-14.93 -3.72,-22.56l0 -3.61 -0.54 0c-1.44,-9.77 -2.71,-19.74 -3.83,-29.85l0 -0.7 -0.07 0c-2.21,-20.36 -3.7,-41.39 -4.29,-62.97l0 -24.29 -0.29 0 0.03 -5.68 283.52 0 91.98 -190.67 0.01 0 0 -0.03 114.19 -236.73 347.54 0 426.95 1082.72 180.3 457.24c2.98,7.57 5.9,15.17 8.77,22.76l0 0.5 0.18 0 4.18 11.18 0 1.91 0.71 0c4.25,11.53 8.39,23.11 12.38,34.71l0 0.2 0.06 0 4.31 12.65 0 0.43 0.14 0 4.22 12.76 0 0.33 0.11 0c4.51,13.8 8.82,27.66 12.98,41.55l0 2.09 0.63 0 3.73 12.77 0 0.32 0.1 0 4.27 15.03 0 2.43 0.68 0c2.77,9.99 5.46,20.01 8.04,30.04l0 0.49 0.12 0 4.25 16.81 0 0.65 0.16 0c2.99,12.13 5.85,24.28 8.57,36.46l0 2.81 0.63 0 3.72 17.18 0 4.63 0.97 0 3.4 16.7 0 5.12 1.01 0c4.51,23.07 8.53,46.21 12.07,69.42l0 4.76 0.73 0c1.28,8.52 2.49,17.04 3.64,25.59l0 4.96 0.68 0c1.32,9.99 2.55,19.99 3.69,30l0 4.9 0.53 0c1.41,12.7 2.7,25.42 3.83,38.16l0 5.48 0.47 0c1.6,18.68 2.91,37.38 3.9,56.09l0 13.72 0.67 0c2.47,55.17 2.3,110.52 -0.53,165.81l-0.14 0 0 2.59c-0.88,16.59 -2,33.18 -3.35,49.77l-1.02 0 0 11.92c-2.24,25.15 -5.03,50.27 -8.37,75.35l-0.36 0 0 2.68c-1.05,7.83 -2.15,15.66 -3.31,23.49l-1.06 0 0 6.85c-1.21,7.91 -2.46,15.81 -3.77,23.7l-0.58 0 0 3.37c-1.47,8.72 -3.02,17.46 -4.62,26.17l-82.65 446.06 0 0.04 -65.84 355.36 -106.04 572.43 0 0 -0.03 0 137.52 -742.38 -61.6 -172.33zm-506.18 410.13l0.02 0c-5.4,190.96 -6.32,349.69 -6.32,435.51 0,-85.8 0.9,-244.55 6.3,-435.51zm0.03 -0.53l0 -0.52c0.54,-18.86 1.11,-38.02 1.74,-57.46 4.2,-130.6 10.53,-273.58 20.01,-417.1l0.02 0c-10.91,165.07 -17.65,329.43 -21.77,475.08zm21.82 -475.84l0 -0.26c4.92,-74.25 10.67,-148.64 17.42,-221.51l0.03 0 0 -0.21c3.97,-42.75 8.27,-84.95 12.95,-126.32l0.02 0c-12.65,112.07 -22.62,230.34 -30.42,348.3zm30.53 -349.34l0 -0.19c7.69,-67.82 16.36,-133.34 26.15,-195.13l0.03 0c-9.8,61.85 -18.49,127.44 -26.18,195.32zm26.19 -195.41l0 -0.15c2.81,-17.7 5.73,-35.07 8.72,-52.11l0 -0.03c12.74,-72.5 27.2,-138.83 43.62,-196.32l0.01 0 0 -0.05c8.14,-28.47 16.75,-54.7 25.87,-78.49l-0.03 0c-31.86,83.24 -57.52,196.85 -78.19,327.15z"/>
  <path class="fil4" d="M2435.95 3371.55l256.3 244.58 -691.85 1276.24c0,0 81.12,-930.23 435.55,-1520.82z"/>
  <path class="fil13" d="M3802.16 4444.77c0,0 60.74,42.06 52.37,127.1 -8.42,85.09 -49.92,218.04 -137.4,214.38 -87.53,-3.66 15.79,-394.41 85.03,-341.48z"/>
  <path class="fil5" d="M4015.98 3327.62c-232.1,-52.75 -474.04,83.03 -549.53,308.76 -72.22,215.84 19.85,442.26 202.68,552.53 41.92,25.3 61.05,76 48.57,123.35l-164.11 621.3c-7.37,27.79 9.2,56.32 36.99,63.78 27.98,7.51 56.69,-9.15 64.06,-37.13l163.89 -620.42c12.65,-47.92 55.16,-82.16 104.68,-83.3 203.5,-4.63 388.03,-141.94 443.36,-348.5 68.73,-256.83 -88.92,-520.94 -350.59,-580.37z"/>
  <path class="fil10" d="M4261.11 3879.75c-51.63,192.69 -249.59,307.05 -442.28,255.49 -192.69,-51.58 -307.05,-249.59 -255.47,-442.28 51.58,-192.64 249.59,-307.05 442.28,-255.47 192.68,51.58 307.04,249.58 255.47,442.26z"/>
  <path class="fil4" d="M4144.39 3510.14l-508.43 508.46c41.67,49.7 97.14,88.36 162.5,110.05l456.32 -456.33c-21.03,-62.92 -59.26,-119.11 -110.39,-162.18z"/>
  <path class="fil4" d="M3604.03 3974.05l496.03 -495.98c-28.81,-17.5 -60.31,-31.42 -94.42,-40.58l-3.63 -0.79 -439.44 439.39c8.95,34.7 23.01,67.6 41.46,97.96z"/>
  <path class="fil13" d="M3356.84 4695.19l171.17 -96.96c0,0 46.26,-162.22 150.24,-162.67 84.08,-0.35 90.01,139.06 73.65,146.7 -33.68,15.75 -63.88,-70.99 -63.88,-70.99 0,0 -39.23,237.93 -124.18,263.76l-132.34 81.73 -74.66 -161.57z"/>
  <path class="fil25" d="M2551.07 5350.53l0 -0.84 -7.28 0c-20.4,-2.69 -38.33,-8.48 -53.81,-17.38l0 -0.08 -0.15 0c-4.53,-2.61 -8.83,-5.5 -12.95,-8.63l0 -0.09 -0.11 0c-6.25,-4.76 -12.01,-10.14 -17.34,-16.08l0 -1.38 -1.28 0c-1.05,-1.21 -2.06,-2.49 -3.09,-3.75l0 -0.6 -0.49 0c-12.89,-16.1 -22.84,-35.96 -30.05,-59.49l0 -1.6 -0.5 0c-3.37,-11.25 -6.09,-23.35 -8.23,-36.22l0 -3.05 -0.49 0c-1.7,-10.75 -2.97,-22.07 -3.86,-33.91l0 -1 -0.08 0c-1.84,-25.23 -1.88,-52.91 -0.23,-82.9l0.31 0 0 -5.57c0.91,-15.03 2.25,-30.64 3.99,-46.8l0.36 0 0 -3.48c2.19,-19.81 5.01,-40.51 8.36,-61.97l0.37 0 0 -2.43c2.56,-16.18 5.45,-32.84 8.64,-49.93l0.1 0 0 -0.52c1.31,-7.03 2.68,-14.12 4.09,-21.29l0.26 0 0 -1.32 4.15 -20.5 0.22 0 0 -1.04c5.19,-24.97 10.99,-50.82 17.35,-77.5l0.1 0 0 -0.39c5.38,-22.55 11.14,-45.71 17.31,-69.43l0.14 0 0 -0.53c5.5,-21.16 11.33,-42.82 17.44,-64.91l0.01 0 0 -0.06c15.28,-55.27 32.39,-113.34 51.18,-174.13 0,0 113.37,-269.35 234.8,-447.64 17.94,-26.36 36.06,-50.74 54.02,-71.95l0.03 0c-139.47,164.75 -288.85,519.59 -288.85,519.59 -31.14,100.83 -57.41,193.78 -78.57,279.12l62.31 -65.66 439.47 -463.13c6.91,-31.43 13.22,-61.86 18.67,-90.77l0 0.12c-6.23,33.06 -13.57,68.1 -21.68,104.34l-0.14 0 0 0.62c-4.13,18.44 -8.46,37.18 -12.95,56.12l-0.13 0 0 0.59c-29.01,122.21 -64.65,252.44 -95.99,361.56l0 0.02c-16.22,56.49 -31.26,107.24 -43.64,148.34 -19.65,65.28 -32.55,106.11 -32.55,106.11l499.7 -242.16 138.09 -66.94 66.55 242.61c0,0 -84.39,65.18 -204.64,148.39 -18.22,12.61 -37.26,25.62 -56.95,38.88l-0.05 0 0 0.04 -12.95 8.69 -0.13 0 0 0.09 -12.94 8.63 -0.15 0 0 0.1 -13.02 8.63 -0.08 0 0 0.05c-24.02,15.87 -48.8,31.94 -74.06,47.94l-0.11 0 0 0.08c-11.48,7.27 -23.06,14.52 -34.72,21.74l-0.18 0 0 0.11c-28.69,17.78 -57.82,35.32 -87,52.25l-0.28 0 0 0.16c-10.08,5.85 -20.16,11.63 -30.24,17.3l-0.3 0 0 0.16c-13.07,7.38 -26.13,14.61 -39.14,21.65l-0.13 0 0 0.06c-38.33,20.75 -76.22,39.93 -112.83,56.67l-0.61 0 0 0.28c-8,3.66 -15.96,7.22 -23.83,10.63 -5.16,2.24 -10.28,4.42 -15.37,6.55l-0.07 0 0 0.02c-7.21,3.02 -14.35,5.91 -21.41,8.7l-0.41 0 0 0.16 -10.88 4.2 -2.22 0 0 0.84c-11.83,4.46 -23.44,8.54 -34.78,12.25l-0.12 0 0 0.03c-9.81,3.21 -19.42,6.1 -28.81,8.7l-1.73 0 0 0.48c-5.11,1.39 -10.17,2.69 -15.14,3.89l-2.31 0 0 0.54c-6.57,1.55 -13.01,2.93 -19.33,4.12 -20.56,3.88 -39.53,5.8 -56.95,5.8 -6.81,0 -13.37,-0.32 -19.71,-0.9zm283.61 -1388.77l0 -0.03c17.55,-20.69 34.95,-38.38 51.86,-51.95l0.07 0c-16.94,13.6 -34.36,31.25 -51.93,51.98zm52.35 -52.31l0 -0.06c15.38,-12.27 30.36,-21.14 44.69,-25.79l0.05 0c-14.36,4.66 -29.35,13.57 -44.74,25.85zm48.01 -26.77l0 -0.07c6.37,-1.78 12.59,-2.72 18.67,-2.72l0 0c-6.08,0 -12.32,1 -18.67,2.79zm65.45 22.39l0 0.21c-1.33,-2.58 -2.76,-4.95 -4.41,-6.8 1.63,1.83 3.09,4.04 4.41,6.59zm0.06 0.35l0.13 0c5.01,9.88 7.73,24.88 8.53,44.05l0 1.27c-0.74,-19.82 -3.51,-35.24 -8.66,-45.32zm8.87 56.72l0.04 0c0,4.21 -0.08,8.56 -0.22,13.09l-0.03 0 0 0.61c-1.48,43.17 -9.52,100.33 -21.77,165.2l0.03 0c13.59,-72.05 21.96,-134.51 21.95,-178.9zm-13.34 -63.71c-0.04,-0.04 -0.09,-0.09 -0.18,-0.17 0.09,0.08 0.14,0.13 0.18,0.17zm-0.21 -0.21c-0.05,-0.09 -0.14,-0.14 -0.23,-0.22 0.09,0.05 0.18,0.17 0.23,0.22zm-0.31 -0.35c-0.05,0 -0.09,-0.05 -0.14,-0.1 0.05,0.05 0.09,0.1 0.14,0.1zm-0.23 -0.22c-0.03,-0.05 -0.03,-0.05 -0.08,-0.09 0,0.04 0.05,0.09 0.08,0.09zm-0.29 -0.26c0,-0.05 -0.05,-0.09 -0.05,-0.09 0,0 0.05,0.04 0.05,0.09zm-0.23 -0.26l-0.05 -0.05c0,0.05 0.05,0.05 0.05,0.05zm-0.26 -0.27l0 0c-0.26,-0.21 -0.48,-0.43 -0.74,-0.66 0.26,0.23 0.48,0.45 0.74,0.66l0 0zm-1.05 -0.92c-12.25,-10.99 -25.56,-16.05 -39.75,-16.05 14.19,0 27.5,5.06 39.75,16.05l0 0z"/>
  <path class="fil7" d="M2996.08 3898.48l0 -0.05 0 0.05zm-0.18 -0.22c0,0 0,0 -0.03,-0.04 0.03,0.04 0.03,0.04 0.03,0.04zm-0.26 -0.26c-0.03,-0.04 -0.03,-0.09 -0.08,-0.13 0.05,0.04 0.05,0.09 0.08,0.13zm-0.22 -0.23c0,-0.03 -0.04,-0.08 -0.09,-0.12 0.05,0.04 0.09,0.09 0.09,0.12zm-0.17 -0.21c-0.09,-0.05 -0.13,-0.13 -0.21,-0.17 0.08,0.04 0.12,0.12 0.21,0.17zm-0.26 -0.26c-0.04,-0.05 -0.13,-0.08 -0.18,-0.17 0.05,0.09 0.09,0.12 0.18,0.17zm-0.23 -0.22c-0.08,-0.09 -0.17,-0.14 -0.21,-0.22 0.04,0.08 0.13,0.13 0.21,0.22zm-0.95 -0.88c-0.08,-0.08 -0.22,-0.17 -0.31,-0.26 0.09,0.09 0.23,0.18 0.31,0.26zm-40.06 -16.31c0,0 0,0 -0.04,0l0 0c0.04,0 0.04,0 0.04,0z"/>
  <path class="fil26" d="M2468.09 4756.27l0.07 0 0 -0.31 4.32 -17.15 0.05 0 0 -0.19c5.41,-21.29 11.13,-43.04 17.15,-65.25l0.3 0 0 -1.1c6.84,-25.21 14.07,-51.02 21.7,-77.44l0.12 0 0 -0.38c4.1,-14.24 8.33,-28.66 12.66,-43.26l0.42 0 0 -1.41c6.62,-22.26 13.5,-44.94 20.63,-68.05 0,0 149.38,-354.84 288.85,-519.59l0.32 0 0 -0.38c17.57,-20.73 34.99,-38.38 51.93,-51.98l0.42 0 0 -0.33c8.54,-6.82 16.95,-12.54 25.19,-17.13l1 0 0 -0.56c6.28,-3.42 12.48,-6.17 18.55,-8.16l3.27 0 0 -0.92c6.35,-1.79 12.6,-2.8 18.67,-2.79 0.04,0 0.04,0 0.04,0 14.19,0 27.5,5.06 39.75,16.05 0.09,0.09 0.23,0.18 0.31,0.26 0.26,0.23 0.48,0.45 0.74,0.66l0 0c0.04,0.08 0.13,0.13 0.21,0.22l0.05 0.05c0.05,0.09 0.14,0.12 0.18,0.17 0,0 0.05,0.04 0.05,0.09 0.08,0.04 0.12,0.12 0.21,0.17 0.05,0.04 0.05,0.04 0.08,0.09 0.05,0.04 0.09,0.09 0.09,0.12 0.05,0.05 0.09,0.1 0.14,0.1 0.05,0.04 0.05,0.09 0.08,0.13 0.09,0.08 0.18,0.13 0.23,0.22 0.03,0.04 0.03,0.04 0.03,0.04 0.09,0.08 0.14,0.13 0.18,0.17l0 0.05c1.63,1.83 3.09,4.04 4.41,6.59l0 0.35 0.19 0c5.01,9.88 7.73,24.88 8.53,44.05l0 21.39 0.15 0 -0.12 4.37 -0.03 0 0 0.61c-1.48,43.17 -9.52,100.34 -21.77,165.2l-0.05 0 0 0.25c-5.45,28.91 -11.76,59.34 -18.67,90.77l-501.78 528.79 0 0 1.15 -4.58z"/>
  <path class="fil27" d="M919.17 8683.29l0 -0.05c4,-29.03 8.35,-59.59 13.05,-91.57l0.03 0 0 -0.23c22.39,-152.3 52.69,-335.28 91.58,-523.37l0.05 0 0 -0.26c21.93,-106.04 46.59,-213.63 74.11,-318.27l0.08 0 0 -0.29c16.41,-62.38 33.82,-123.69 52.29,-182.98l0.06 0 0 -0.18c12.54,-40.25 25.56,-79.56 39.06,-117.63l0.21 0 0 -0.59c35.72,-100.6 74.87,-192.44 117.58,-269.93l0.23 0 0 -0.44c12.72,-23.04 25.79,-44.67 39.15,-65.02l0.12 0 0 -0.18c25.69,-39.15 52.55,-73.18 80.63,-100.7l-45.72 -187.01 0 -0.09 -0.03 0 -227.17 -929.09c0,0 -30.95,-47.48 -60.78,-126.82l0 -0.02c-5.95,-15.8 -11.85,-32.87 -17.45,-51.09l0 -1.26 -0.4 0c-6.18,-20.2 -11.96,-41.81 -17.05,-64.64l0 -0.82 -0.19 0c-5.17,-23.28 -9.59,-47.82 -12.91,-73.46l0 -0.71 -0.09 0c-1.74,-13.55 -3.22,-27.36 -4.28,-41.49l0 -6.52 -0.43 0c-2.35,-34.83 -2.45,-71.32 0.42,-109.07l0.01 0 0 -0.09c0.99,-12.91 2.33,-25.99 4.05,-39.18l0.32 0 0 -2.54c1.25,-9.28 2.71,-18.63 4.34,-28.01l0.02 0 0 -0.13c1.25,-7.2 2.64,-14.42 4.12,-21.69l0.25 0 0 -1.2c1.11,-5.4 2.3,-10.82 3.56,-16.25l0.81 0 0 -3.46c7.5,-31.8 17.45,-64.15 30.13,-96.9l0.4 0 0 -1.08c2.69,-6.9 5.51,-13.82 8.44,-20.74l0.3 0 0 -0.72 3.41 -8 0.94 0 0 -2.08c11.18,-25.32 24.07,-50.83 38.87,-76.46l0.4 0 0 -0.66c2.4,-4.14 4.93,-8.28 7.43,-12.43l1.3 0 0 -2.17 3.98 -6.56 0.39 0 0 -0.59c2.57,-4.16 5.27,-8.33 7.95,-12.5l0.77 0 0 -1.21c5.24,-8.14 10.67,-16.3 16.36,-24.45l696.53 0 149.88 1581.68 1.17 12.94 0 14.94 1.24 0c1.28,16.18 2.31,32.36 3.13,48.54l0 69.27 2.09 0c0.26,26.2 -0.09,52.4 -1.01,78.54l-1.08 0 0 25.02c-0.53,10.58 -1.16,21.14 -1.88,31.7l-2.49 0 0 31.88c-0.73,8.29 -1.5,16.57 -2.35,24.85l-2.01 0 0 18.82c-2.25,19.95 -4.88,39.85 -7.82,59.72l-0.9 0 0 6.02 -2.48 15.8 -1.89 0 0 11.46 -2.53 14.72 -1.83 0 0 10.07 -2.21 11.75 -2.15 0 0 11.08 -2.15 10.74 -2.21 0 0 10.7 -2.38 11.1 -1.99 0 0 9.06 -2.91 12.76 -1.46 0 0 6.21 -3.73 15.61 -0.63 0 0 2.57c-2.66,10.81 -5.43,21.57 -8.31,32.33l-0.41 0 0 1.52 -3.14 11.58 -1.23 0 0 4.4 -2.43 8.69 -1.93 0 0 6.73 -1.83 6.35 -2.53 0 0 8.49 -2.71 8.98 -1.65 0 0 5.43 -2.38 7.65 -1.99 0 0 6.34 -2.16 6.75 -2.21 0 0 6.79 -2.06 6.31 -2.3 0 0 6.91 -2.07 6.17 -2.29 0 0 6.67 -2.21 6.42 -2.15 0 0 6.12 -4.03 11.33 -0.34 0 0 0.92c-3.29,9.14 -6.65,18.24 -10.12,27.32l-112.04 294.66 -0.02 0 0 0.02 -490.52 1289.96 -436.25 0c0,0 11.72,-119 36.66,-299.51z"/>
  <path class="fil13" d="M1295.28 8921.14l-85.08 296.41c0,0 525.31,176.11 537.08,243.6 11.7,67.51 -968.48,0 -968.48,0 0,0 0,-139.88 123.26,-254.99l52.84 -285.02 340.38 0z"/>
  <path class="fil22" d="M1747.28 9461.15c-11.77,-67.49 -537.08,-243.6 -537.08,-243.6l31.37 -109.17c-100.23,7.73 -126.27,97.78 -126.27,97.78l-213.24 0c-123.26,115.11 -123.26,254.99 -123.26,254.99 0,0 980.18,67.51 968.48,0z"/>
  <path class="fil13" d="M2655.09 8921.14l-20.65 296.41c0,0 525.31,176.11 537.05,243.6 11.73,67.51 -968.45,0 -968.45,0 0,0 0,-139.88 123.26,-254.99l-11.65 -285.02 340.44 0z"/>
  <path class="fil22" d="M3171.49 9461.15c-11.74,-67.49 -537.05,-243.6 -537.05,-243.6l7.63 -109.17c-100.22,7.73 -102.53,97.78 -102.53,97.78l-213.24 0c-123.26,115.11 -123.26,254.99 -123.26,254.99 0,0 980.18,67.51 968.45,0z"/>
  <path class="fil13" d="M3371.2 3099.59l-127.2 236.76 -62.61 -41.11c0,0 -95.86,211.32 -211.31,199.58 -115.41,-11.74 -129.12,-44.99 -129.12,-44.99l-148.71 166.3c0,0 -234.79,-72.43 -256.3,-244.58l138.98 -224.44 359.93 -368.36 436.34 320.84z"/>
  <path class="fil22" d="M3107.78 2960.62c0,0 191.86,159.87 314.43,239.81 122.56,79.89 288.41,-35 288.41,-232.18 0,-197.18 -245.79,-268.78 -328.38,-220.78 0,0 -210.41,-170.39 -349.07,-170.53 -133.21,-0.12 -133.17,111.88 -133.17,111.88 0,0 -122.61,-74.57 -229.17,37.31 -106.59,111.92 -95.9,420.98 -95.9,420.98l122.57 73.87 74.57 -73.87c0,0 -38.06,-240.82 127.93,-213.16 63.92,10.65 15.96,143.91 15.96,143.91 0,0 127.9,-5.32 191.82,-117.24z"/>
  <polygon class="fil28" points="2991.77,3901.05 2991.76,3901.05 2991.76,3901.06 2248.11,5020.87 2435.95,5549.09 1915.53,5549.09 1876.4,5040.41 2692.25,3616.13 2994.55,3896.86 "/>
  <polygon class="fil10" points="2039.59,4755.57 2692.25,3616.13 2818.45,3958.52 2381.15,4260.77 2466.28,4481.73 "/>
  <polygon class="fil29" points="906.06,5419.51 906.07,5419.51 906.07,5419.48 1269.89,4711.76 1307.49,4577.38 1307.5,4577.38 1307.5,4577.33 1422.48,4166.38 1992.29,3474.58 1601.81,3525.37 1637.72,3396.99 2079.86,3197.41 2435.95,3371.55 1970.3,4997.39 1910.39,5121.66 1704.21,5549.09 1704.21,5549.09 1420.69,5549.09 839.44,5549.09 "/>
  <polygon class="fil18" points="1422.43,4166.43 1601.81,3525.37 1422.48,4166.38 "/>
  <polygon class="fil30" points="1422.48,4166.38 1601.81,3525.37 1992.29,3474.58 1422.43,4166.43 "/>
  <polygon class="fil10" points="2435.95,3371.55 1970.3,4997.39 1903.79,4184.49 2115.07,4163.95 2075.98,3447.88 "/>
  <path class="fil13" d="M1230.71 4658.23l48.83 137.87 189.01 94.56c32.94,16.5 58.16,45.12 70.34,79.89l51.79 147.74 -53.41 23.48c-42.93,18.85 -93.16,2.76 -117.1,-37.51l-17.99 -30.25 -189.72 -81.85c-40.36,-17.42 -67.89,-55.55 -71.72,-99.36l-3.94 -44.86 -62.17 -126.13 156.08 -63.58z"/>
  <path class="fil31" d="M975.89 4642.85l0 -0.03 -0.01 0c-13.91,-25.68 -28.57,-53.38 -43.63,-82.65l0 -0.26 -0.13 0c-12.88,-25.03 -26,-51.2 -39.14,-78.15l0 -0.39 -0.18 0 -4.18 -8.58 0 -0.14 -0.08 0c-17.73,-36.66 -35.37,-74.72 -52.28,-113.34l0 -0.1 -0.05 0c-4.4,-10.06 -8.74,-20.16 -13.04,-30.28l0 -0.27 -0.11 0c-12.21,-28.82 -23.89,-57.82 -34.8,-86.71l0 -0.55 -0.21 0c-9.28,-24.59 -17.99,-49.08 -25.96,-73.27l0 -0.92 -0.3 0 -4.07 -12.59 0 -0.49 -0.16 0c-10.17,-31.92 -18.96,-63.18 -26.02,-93.44l0 -2.56 -0.61 0c-1.32,-5.72 -2.57,-11.41 -3.76,-17.07l0 -0.38 -0.09 0c-1.53,-7.26 -2.97,-14.47 -4.26,-21.6l0 -0.22 -0.05 0c-1.65,-8.95 -3.05,-17.76 -4.32,-26.45l0 -4.09 -0.57 0c-1.64,-11.84 -2.91,-23.43 -3.8,-34.74l0 -17.62 -1.04 0c-0.63,-15.19 -0.42,-29.74 0.6,-43.64l0.44 0 0 -5.67c0.78,-8.59 1.97,-16.84 3.47,-24.87l0.9 0 0 -4.85c1.04,-5.12 2.25,-10.08 3.62,-14.91l0.7 -2.06 0.05 0 0 -0.13c3,-9.92 7.42,-20.08 13.01,-30.41l0.07 0 0 -0.14c20.19,-37.27 56.44,-76.99 104.58,-117.67l0.15 0 0 -0.12c157.21,-132.83 440.18,-275.65 698.12,-375.13l0.01 0c146.73,-56.58 285.27,-99.11 388.01,-117.81l0.33 0 0 -0.06c8.94,-1.62 17.57,-3.04 25.96,-4.3l0.22 0 0 -0.04c38.87,-5.81 71.47,-7.6 95.99,-4.7l0 0.37 2.91 0c7.02,0.95 13.34,2.33 18.91,4.12l0 0.25 0.76 0c2.88,0.95 5.56,2.02 8.01,3.22 3.1,1.53 5.97,3.2 8.68,4.95l0 0.56 0.88 0c12.63,8.42 20.89,19.42 25.31,32.44l0 2.46 0.8 0c6.41,21.66 2.6,48.64 -9.37,78.54l-0.17 0 0 0.41c-5.57,13.87 -12.91,28.35 -21.79,43.23l-0.02 0 0 0.04c-18.52,31.02 -43.76,63.71 -73.87,95.95l-0.31 0 0 0.34c-12.24,13.09 -25.3,26.13 -39.03,38.93l-0.24 0 0 0.23c-48.33,45.04 -105.07,87.35 -164.8,120.64 -214.2,119.33 -727.77,402.42 -727.77,402.42l191.73 693.21 -158.73 88.14 -0.01 0 0 0.01 -34.56 19.19c0,0 -43.66,-70.84 -100.7,-176.25z"/>
  <path class="fil32" d="M2271.8 8478.22l0.01 0 0 -0.53c1.19,-42.04 2.6,-85.64 4.25,-130.36l0.11 0 0 -2.9c1.25,-33.38 2.64,-67.38 4.18,-101.83l0.18 0 0 -3.76c1.31,-29.03 2.73,-58.33 4.28,-87.87l0.08 0 0 -1.67c1.34,-25.49 2.79,-51.15 4.31,-76.87l0.06 0 0 -1.02c1.36,-22.89 2.8,-45.83 4.32,-68.8l0.05 0 0 -0.76c1.33,-20.12 2.71,-40.23 4.16,-60.33l0.19 0 0 -2.42c2.6,-35.7 5.41,-71.29 8.44,-106.65l0.29 0 0 -3.44c2.67,-31.1 5.52,-61.99 8.55,-92.56l0.18 0 0 -1.83c1.4,-14.01 2.84,-27.94 4.31,-41.8l0.05 0 0 -0.46c1.38,-13.01 2.79,-25.96 4.25,-38.81l0.11 0 0 -1.04c3.99,-35.25 8.25,-69.89 12.79,-103.69l0.3 0 0 -2.29c4.12,-30.51 8.5,-60.33 13.09,-89.34l0.01 0 0 -0.09 4.24 -26.09 0.12 0 0 -0.73c7.95,-47.53 16.59,-92.57 26,-134.53l0.18 0 0 -0.81c3.99,-17.77 8.11,-34.96 12.38,-51.55l0.72 0 0 -2.83 3.9 -14.62 0.45 0 0 -1.65c6.59,-24.24 13.52,-47 20.78,-68.17l1.04 0 0 -3.07 3.57 -10.02 0.79 0 0 -2.15c1.34,-3.67 2.66,-7.37 4.02,-10.93l0.35 0 0 -0.88c2.31,-6.09 4.67,-11.96 7.06,-17.68l403.61 1129.03 -137.52 742.38 0 0 -51.23 0 4.28 -61.66 -340.44 0 2.49 61.66 -51.4 0c0,0 -0.26,-24.87 -0.26,-69.07 0,-85.82 0.92,-244.55 6.32,-435.51z"/>
  <polygon class="fil15" points="2650.81,8982.8 2317.14,8982.8 2314.65,8921.14 2655.09,8921.14 "/>
  <polygon class="fil33" points="-0.33,9517.93 12522.53,9517.93 12522.53,9464.38 -0.33,9464.38 "/>
  <path class="fil4" d="M4598.39 3077.03l-91.66 0c-15.63,0 -28.28,-12.65 -28.28,-28.27l0 -91.68 -43.89 0 0 91.68c0,15.62 -12.66,28.27 -28.33,28.27l-91.67 0 0 43.9 91.67 0c15.67,0 28.33,12.69 28.33,28.27l0 91.68 43.89 0 0 -91.68c0,-15.58 12.65,-28.27 28.28,-28.27l91.66 0 0 -43.9z"/>
  <path class="fil4" d="M10586.2 2612.42l-91.68 0c-15.62,0 -28.27,-12.69 -28.27,-28.31l0 -91.64 -43.95 0 0 91.64c0,15.62 -12.65,28.31 -28.27,28.31l-91.67 0 0 43.89 91.67 0c15.62,0 28.27,12.66 28.27,28.28l0 91.67 43.95 0 0 -91.67c0,-15.62 12.65,-28.28 28.27,-28.28l91.68 0 0 -43.89z"/>
  <path class="fil4" d="M11858.77 7819.79l-91.67 0c-15.58,0 -28.27,-12.65 -28.27,-28.24l0 -91.71 -43.9 0 0 91.71c0,15.59 -12.65,28.24 -28.27,28.24l-91.68 0 0 43.94 91.68 0c15.62,0 28.27,12.65 28.27,28.32l0 91.63 43.9 0 0 -91.63c0,-15.67 12.69,-28.32 28.27,-28.32l91.67 0 0 -43.94z"/>
  <path class="fil4" d="M5347.15 127.08l-91.68 0c-15.62,0 -28.27,-12.65 -28.27,-28.27l0 -91.66 -43.9 0 0 91.66c0,15.62 -12.69,28.27 -28.31,28.27l-91.68 0 0 43.95 91.68 0c15.62,0 28.31,12.65 28.31,28.27l0 91.68 43.9 0 0 -91.68c0,-15.62 12.65,-28.27 28.27,-28.27l91.68 0 0 -43.95z"/>
  <path class="fil5" d="M7789.24 7777.78c0,288.23 -233.67,521.94 -521.91,521.94 -288.28,0 -521.94,-233.71 -521.94,-521.94 0,-288.3 233.66,-521.96 521.94,-521.96 288.24,0 521.91,233.66 521.91,521.96z"/>
  <path class="fil10" d="M7267.33 7965.88c-103.89,0 -188.15,-84.26 -188.15,-188.1 0,-103.95 84.26,-188.2 188.15,-188.2 103.9,0 188.15,84.25 188.15,188.2 0,103.84 -84.25,188.1 -188.15,188.1zm0 -603.68c-229.11,0 -415.57,186.45 -415.57,415.58 0,229.11 186.46,415.52 415.57,415.52 229.12,0 415.53,-186.41 415.53,-415.52 0,-229.13 -186.41,-415.58 -415.53,-415.58z"/>
  <path class="fil10" d="M7267.33 8246.66c-258.52,0 -468.89,-210.4 -468.89,-468.88 0,-258.54 210.37,-468.9 468.89,-468.9 258.5,0 468.88,210.36 468.88,468.9 0,258.48 -210.38,468.88 -468.88,468.88zm878.97 -283.53c12.51,-59.82 19.19,-121.83 19.19,-185.35 0,-63.58 -6.68,-125.55 -19.19,-185.36l-207.18 0c-15.45,-56.03 -37.61,-109.18 -65.76,-158.61l146.39 -146.35c-68.24,-104.5 -157.65,-193.91 -262.1,-262.15l-146.4 146.39c-49.4,-28.15 -102.53,-50.31 -158.56,-65.76l0 -207.13c-59.86,-12.56 -121.78,-19.24 -185.36,-19.24 -63.57,0 -125.52,6.68 -185.4,19.24l0 207.13c-55.98,15.45 -109.13,37.61 -158.52,65.76l-146.39 -146.39c-104.5,68.24 -193.87,157.65 -262.15,262.1l146.39 146.4c-28.14,49.43 -50.3,102.58 -65.75,158.61l-207.14 0c-12.56,59.81 -19.23,121.78 -19.23,185.36 0,63.52 6.67,125.53 19.23,185.35l207.14 0c15.45,55.98 37.61,109.17 65.75,158.52l-146.39 146.39c68.28,104.5 157.65,193.87 262.15,262.15l146.39 -146.39c49.39,28.14 102.54,50.35 158.52,65.75l0 207.14c59.88,12.56 121.83,19.28 185.4,19.28 63.58,0 125.5,-6.72 185.36,-19.28l0 -207.14c56.03,-15.4 109.16,-37.61 158.56,-65.75l146.4 146.39c104.45,-68.28 193.86,-157.65 262.1,-262.15l-146.39 -146.39c28.15,-49.35 50.31,-102.54 65.76,-158.52l207.18 0z"/>
  <path class="fil5" d="M6224.54 8538.83c0,158.3 -128.29,286.58 -286.59,286.58 -158.26,0 -286.63,-128.28 -286.63,-286.58 0,-158.31 128.37,-286.58 286.63,-286.58 158.3,0 286.59,128.27 286.59,286.58z"/>
  <path class="fil10" d="M5937.95 8642.11c-57.07,0 -103.28,-46.21 -103.28,-103.28 0,-57.07 46.21,-103.33 103.28,-103.33 57.03,0 103.32,46.26 103.32,103.33 0,57.07 -46.29,103.28 -103.32,103.28zm0 -331.45c-125.79,0 -228.21,102.33 -228.21,228.17 0,125.84 102.42,228.16 228.21,228.16 125.83,0 228.16,-102.32 228.16,-228.16 0,-125.84 -102.33,-228.17 -228.16,-228.17z"/>
  <path class="fil10" d="M5937.95 8796.27c-141.95,0 -257.48,-115.46 -257.48,-257.44 0,-141.98 115.53,-257.44 257.48,-257.44 141.99,0 257.44,115.46 257.44,257.44 0,141.98 -115.45,257.44 -257.44,257.44zm482.63 -155.69c6.89,-32.81 10.56,-66.85 10.56,-101.75 0,-34.91 -3.67,-68.94 -10.56,-101.8l-113.75 0c-8.43,-30.72 -20.68,-59.91 -36.08,-87.05l80.37 -80.37c-37.49,-57.37 -86.57,-106.47 -143.95,-143.95l-80.38 80.38c-27.14,-15.41 -56.33,-27.62 -87.05,-36.09l0 -113.76c-32.85,-6.89 -66.89,-10.55 -101.79,-10.55 -34.91,0 -68.9,3.66 -101.76,10.55l0 113.76c-30.76,8.47 -59.95,20.68 -87.09,36.09l-80.37 -80.38c-57.43,37.48 -106.47,86.58 -143.95,143.95l80.38 80.37c-15.45,27.14 -27.62,56.33 -36.1,87.05l-113.75 0c-6.89,32.86 -10.55,66.89 -10.55,101.8 0,34.9 3.66,68.94 10.55,101.75l113.75 0c8.48,30.77 20.65,59.95 36.1,87.09l-80.38 80.37c37.48,57.38 86.52,106.47 143.95,143.96l80.37 -80.38c27.14,15.41 56.33,27.62 87.09,36.09l0 113.75c32.86,6.89 66.85,10.57 101.76,10.57 34.9,0 68.94,-3.68 101.79,-10.57l0 -113.75c30.72,-8.47 59.91,-20.68 87.05,-36.09l80.38 80.38c57.38,-37.53 106.46,-86.58 143.95,-143.96l-80.37 -80.37c15.4,-27.14 27.65,-56.32 36.08,-87.09l113.75 0z"/>
 </g>
</svg>
